<?xml version="1.0" encoding="utf-8"?>
<!-- Generator: Adobe Illustrator 21.0.2, SVG Export Plug-In . SVG Version: 6.00 Build 0)  -->
<svg version="1.1" id="レイヤー_1" xmlns="http://www.w3.org/2000/svg" xmlns:xlink="http://www.w3.org/1999/xlink" x="0px"
	 y="0px" viewBox="0 0 512 512" style="enable-background:new 0 0 512 512;" xml:space="preserve">
<g>
	<path d="M197.2,182.6c0,6.9-5.6,12.5-12.5,12.5c-6.9,0-12.5-5.6-12.5-12.5c0-6.9,5.6-12.5,12.5-12.5
		C191.6,170.2,197.2,175.7,197.2,182.6z"/>
	<path d="M167.7,182.6c0,9.4,7.6,17,17,17c9.3,0,17-7.6,17-17c0-9.4-7.6-17-17-17C175.3,165.7,167.7,173.3,167.7,182.6z"/>
	<path d="M82.8,76.7c0.3,2.1,8.7,52.9,31.4,92.3c22.7,39.5,50,60.4,51.2,61.3l5.9-6.7c-0.3-0.3-25.9-26.9-35.5-69.5
		c-8.8-39.2-6.6-55.7-6.6-55.9l0.4-3l-2.6-1.5L81.3,67.4L82.8,76.7z"/>
	<g>
		<path d="M159.4,363c-3.1,1-6.9,1.5-11.4,1.5c-3.1,0-6-0.1-8.7-0.3c-2.7-0.2-5.1-0.6-7.2-1v-13.5h1.6c1.4,0.5,2.9,1.1,4.5,1.5
			c1.6,0.5,3.5,0.7,6,0.7c3.1,0,5.5-0.4,7.2-1.2c1.7-0.8,2.9-2,3.6-3.5c0.7-1.5,1.1-3.1,1.2-4.8c0.1-1.8,0.1-4,0.1-6.7v-26.7h-4.4
			c-5.5,9-13,19.7-23,30.7c-24.7,27.1-39.6,31.4-39.8,31.5l-3.7,1l0.4,3.8l8.7,68.6l6-4.1c1.4-1,35.3-24.5,60.6-70.7
			c1.8-3.3,3.5-6.8,5.1-10.4C164.3,360.9,162,362.1,159.4,363z"/>
		<path d="M188.3,206.7l-8.9-0.3c-5.5,50.8-11.7,70.4-17.1,82.8c-0.8,1.9-2,4.5-3.6,7.6h14.9v44.3c3.8-11,6.7-22.4,8.6-33.6
			C190,260,188.3,207.2,188.3,206.7z"/>
	</g>
	<path d="M256.2,363.6H217v-11.8h11v-43.2h-11v-11.8h39.2v11.8h-11v43.2h11V363.6z"/>
	<path d="M352.2,363.6h-56.1v-12.4l33.5-41.4h-31.9v-12.9h52.7v12.7l-33.3,41.1h35V363.6z"/>
	<path d="M430.7,363.6h-39.2v-11.8h11v-43.2h-11v-11.8h39.2v11.8h-11v43.2h11V363.6z"/>
	<g>
		<path d="M164.8,375.6c-0.5,0-0.8-0.4-0.8-1c0-0.6,0.3-1,0.8-1h18.8c0.5,0,0.8,0.4,0.8,1c0,0.5-0.3,1-0.8,1H175v14.7h10.3
			c0.5,0,0.7,0.4,0.7,1c0,0.6-0.3,1.1-0.7,1.1h-22.2c-0.5,0-0.8-0.5-0.8-1.1c0-0.5,0.3-1,0.8-1h9.7v-14.7H164.8z"/>
		<path d="M209.7,379.1c0.8,3.2,2.2,5.8,4,7.9c1.9,2.3,4.2,4,6.5,5c0.4,0.2,0.6,0.5,0.6,0.9c0,0.2-0.1,0.5-0.2,0.7
			c-0.2,0.4-0.6,0.5-0.9,0.5c-0.2,0-0.4-0.1-0.6-0.2c-2.5-1.2-5-3.3-6.8-5.6c-1.5-1.9-2.6-4.1-3.4-6.6c-0.4,1.7-1,3.3-1.8,4.8
			c-1.8,3.3-4.8,6-8.3,7.6c-0.2,0.1-0.4,0.1-0.5,0.1c-0.4,0-0.7-0.2-0.9-0.6c-0.1-0.2-0.2-0.4-0.2-0.6c0-0.4,0.2-0.7,0.6-0.8
			c3.6-1.6,6-3.7,7.6-6.8c1.1-1.9,1.6-3.9,2-6.3h-9.1c-0.5,0-0.8-0.5-0.8-1c0-0.5,0.3-1,0.8-1h9.3c0.1-1.4,0.2-3.1,0.2-5
			c0-0.6,0.4-0.9,1.1-0.9c0.6,0,1,0.3,1,0.9c0,1.8-0.1,3.4-0.2,5h10.2c0.5,0,0.8,0.4,0.8,1c0,0.6-0.3,1-0.8,1H209.7z"/>
		<path d="M242,372.4c1.1,0,1.6,0.6,1.6,1.4c0,0.3-0.1,0.6-0.2,1c-1.6,4-5.7,7.8-10.4,10.2c-0.3,0.2-0.5,0.2-0.7,0.2
			c-0.3,0-0.6-0.2-0.7-0.5c-0.1-0.2-0.1-0.3-0.1-0.5c0-0.4,0.2-0.6,0.6-0.8c1.6-0.8,3-1.6,4.2-2.6c-0.6-0.6-1.2-1.1-1.8-1.5
			c-0.2-0.1-0.3-0.3-0.3-0.5c0-0.2,0.1-0.4,0.3-0.5c0.2-0.2,0.4-0.3,0.6-0.3c0.2,0,0.3,0,0.5,0.1c0.6,0.4,1.4,1,2.1,1.6
			c0.6-0.5,1.1-1.1,1.6-1.7c-0.7-0.6-1.4-1.1-2-1.5c-0.2-0.1-0.3-0.3-0.3-0.5c0-0.1,0-0.3,0.2-0.5c0.2-0.2,0.4-0.3,0.6-0.3
			c0.2,0,0.3,0,0.5,0.1c0.6,0.3,1.3,0.8,2,1.4c0.5-0.7,0.9-1.4,1.3-2.1c0.1-0.2,0.2-0.3,0.2-0.4c0-0.2-0.2-0.3-0.5-0.3h-3.5
			c-1.3,1.8-2.8,3.3-4.4,4.4c-0.2,0.1-0.4,0.2-0.6,0.2c-0.3,0-0.5-0.1-0.7-0.4c-0.1-0.2-0.2-0.4-0.2-0.6c0-0.3,0.1-0.5,0.5-0.7
			c2-1.3,3.8-3.2,4.9-5.6c0.2-0.4,0.5-0.5,0.8-0.5c0.1,0,0.3,0,0.4,0.1c0.4,0.1,0.7,0.3,0.7,0.6c0,0.1,0,0.2-0.1,0.3
			c-0.1,0.2-0.2,0.3-0.3,0.5H242z M239.3,388.8c0,0.2-0.1,0.4-0.2,0.5c-1.2,1.6-3.1,3.3-4.8,4.4c-0.2,0.1-0.4,0.2-0.5,0.2
			c-0.4,0-0.7-0.2-0.9-0.5c-0.1-0.2-0.2-0.4-0.2-0.5c0-0.3,0.2-0.6,0.5-0.8c1.5-0.9,3.2-2.3,4.3-3.9c0.2-0.2,0.4-0.4,0.7-0.4
			c0.2,0,0.4,0.1,0.6,0.2C239.1,388.3,239.3,388.6,239.3,388.8z M234.4,386.8c-0.5,0-0.7-0.4-0.7-0.9c0-0.5,0.3-0.9,0.7-0.9h18.9
			c0.5,0,0.7,0.4,0.7,0.9c0,0.5-0.2,0.9-0.7,0.9h-8.5v5.5c0,1.7-1,2.4-2.8,2.4c-0.9,0-1.8-0.1-2.5-0.2c-0.4-0.1-0.7-0.4-0.7-0.9
			c0-0.1,0-0.2,0-0.3c0.1-0.5,0.4-0.7,0.8-0.7c0.1,0,0.2,0,0.2,0c0.6,0.2,1.3,0.3,2,0.3c0.8,0,1.1-0.2,1.1-1.1v-5H234.4z
			 M247.6,380.5c0.5,0,0.7,0.4,0.7,0.9c0,0.5-0.2,0.9-0.7,0.9h-7.3c-0.5,0-0.7-0.4-0.7-0.9c0-0.5,0.2-0.9,0.7-0.9H247.6z
			 M252.4,372.4c1.2,0,1.8,0.6,1.8,1.5c0,0.4-0.2,0.8-0.5,1.3c-0.9,1.3-2.3,2.7-3.8,3.9c1.5,1.5,3.3,2.6,5.3,3.6
			c0.4,0.1,0.6,0.5,0.6,0.9c0,0.1,0,0.3-0.1,0.4c-0.2,0.4-0.5,0.7-0.9,0.7c-0.2,0-0.3-0.1-0.5-0.1c-4.6-2.3-8.6-6.3-10.3-11.7
			c0-0.1-0.1-0.2-0.1-0.3c0-0.3,0.2-0.6,0.6-0.8c0.1,0,0.2,0,0.3,0c0.3,0,0.6,0.2,0.7,0.6c0.7,2.1,1.7,3.9,3,5.5
			c1.3-0.9,2.5-2.2,3.2-3.1c0.1-0.1,0.1-0.3,0.1-0.4c0-0.2-0.2-0.3-0.5-0.3h-4.1c-0.4,0-0.7-0.4-0.7-0.9c0-0.5,0.3-0.8,0.7-0.8
			H252.4z M248.9,387.9c0.2,0,0.5,0.1,0.7,0.3c1.3,1.5,3.2,2.9,4.6,3.7c0.3,0.2,0.5,0.5,0.5,0.8c0,0.2-0.1,0.4-0.2,0.5
			c-0.2,0.4-0.5,0.6-0.8,0.6c-0.2,0-0.4-0.1-0.6-0.2c-1.7-1.1-3.6-2.7-5-4.2c-0.2-0.2-0.3-0.4-0.3-0.6c0-0.3,0.2-0.5,0.4-0.7
			C248.5,388,248.7,387.9,248.9,387.9z"/>
		<path d="M279.3,387.4c1.8,2.9,5.5,4.7,9.8,5.4c0.4,0,0.8,0.4,0.8,0.9c0,0.1,0,0.2,0,0.3c-0.1,0.6-0.6,0.8-1,0.8
			c-0.1,0-0.1,0-0.2,0c-4.7-0.8-8.7-2.9-11-6.5c-0.4,0.8-0.8,1.5-1.3,2.1c-2,2.5-5.2,3.8-8.2,4.4c-0.1,0-0.2,0-0.3,0
			c-0.5,0-0.8-0.3-1-0.7c-0.1-0.1-0.1-0.2-0.1-0.3c0-0.5,0.3-0.8,0.7-0.9c2.8-0.6,5.8-1.7,7.3-3.6c0.5-0.6,0.9-1.2,1.2-1.8h-8.5
			c-0.4,0-0.7-0.3-0.7-0.8c0-0.5,0.3-0.8,0.7-0.8h9.1c0.2-0.7,0.3-1.5,0.4-2.3h-6.6c-0.4,0-0.7-0.3-0.7-0.8c0-0.5,0.3-0.8,0.7-0.8
			h6.7c0-0.2,0-0.4,0-0.5c0-0.5,0.1-1,0.1-1.5h-7c-0.5,0-0.7-0.3-0.7-0.8c0-0.5,0.2-0.8,0.7-0.8h7c0-0.5,0-1,0-1.5
			c0-0.5,0.3-0.8,0.9-0.8c0.6,0,0.9,0.2,0.9,0.7c0,0.6,0,1.1,0,1.6h7.3c0.4,0,0.7,0.3,0.7,0.8c0,0.5-0.3,0.8-0.7,0.8H279
			c0,0.1,0,0.2,0,0.3c0,0.6,0,1.2-0.1,1.7h7c0.4,0,0.7,0.3,0.7,0.8c0,0.5-0.3,0.8-0.7,0.8h-7.1c0,0.8-0.2,1.5-0.3,2.3H289
			c0.4,0,0.7,0.3,0.7,0.8c0,0.5-0.3,0.8-0.7,0.8H279.3z M287.1,373.5c1.5,0,2.2,0.6,2.2,2.1v2.5c0,0.5-0.4,0.8-1,0.8
			c-0.6,0-1-0.3-1-0.8v-2.2c0-0.5-0.3-0.7-0.8-0.7h-16.8c-0.6,0-0.8,0.1-0.8,0.7v2.2c0,0.5-0.4,0.7-1,0.7c-0.6,0-1-0.3-1-0.8v-2.5
			c0-1.5,0.7-2.1,2.2-2.1h7.7v-1.7c0-0.5,0.3-0.8,1-0.8c0.7,0,1,0.3,1,0.8v1.7H287.1z"/>
		<path d="M304.8,386.3c0-1.1,0.1-2.2,0.3-3.4c-0.7,0.9-1.6,1.6-2.4,2.3c-0.2,0.1-0.4,0.2-0.5,0.2c-0.3,0-0.6-0.2-0.8-0.4
			c-0.1-0.2-0.2-0.4-0.2-0.6c0-0.3,0.1-0.5,0.4-0.7c2.3-1.8,4.2-3.9,5.7-6.4c0.2-0.3,0.4-0.4,0.7-0.4c0.2,0,0.4,0,0.6,0.2
			c0.3,0.2,0.5,0.5,0.5,0.7c0,0.2,0,0.3-0.2,0.5c-0.5,1-1.3,2.1-2.1,3V394c0,0.5-0.4,0.7-1,0.7c-0.6,0-1-0.3-1-0.7V386.3z
			 M307.4,371.1c0.2,0,0.4,0,0.6,0.2c0.3,0.2,0.5,0.5,0.5,0.8c0,0.2,0,0.3-0.2,0.5c-1.1,1.8-3.3,4-5.2,5.4c-0.2,0.1-0.4,0.2-0.6,0.2
			c-0.3,0-0.5-0.1-0.7-0.4c-0.1-0.2-0.2-0.4-0.2-0.7c0-0.3,0.1-0.5,0.4-0.7c1.8-1.3,3.6-3.1,4.8-5
			C306.9,371.3,307.2,371.1,307.4,371.1z M310.3,381c-0.5,0-0.7-0.4-0.7-0.9c0-0.5,0.3-0.9,0.7-0.9H324c0.5,0,0.7,0.4,0.7,0.9
			c0,0.5-0.3,0.9-0.7,0.9h-3.7v11c0,1.8-1.1,2.5-3.1,2.5c-1,0-2.1-0.1-2.9-0.3c-0.4-0.1-0.7-0.4-0.7-0.9c0-0.1,0-0.1,0-0.2
			c0.1-0.5,0.4-0.8,0.8-0.8c0.1,0,0.2,0,0.2,0c0.7,0.1,1.7,0.3,2.5,0.3c0.9,0,1.2-0.3,1.2-1.2V381H310.3z M311.4,374.3
			c-0.5,0-0.7-0.4-0.7-1c0-0.5,0.3-0.9,0.7-0.9h11.5c0.5,0,0.7,0.4,0.7,0.9c0,0.5-0.3,1-0.7,1H311.4z"/>
		<path d="M336.8,378.1c-0.4,0-0.7-0.4-0.7-0.9c0-0.5,0.3-0.8,0.7-0.8h9.7v-2.3c-2.5,0.2-5.1,0.3-7.5,0.3c-0.5,0-0.8-0.3-0.8-0.9
			s0.3-0.9,0.8-0.9c5.5,0,11.7-0.5,16.3-1.5c0.2,0,0.3-0.1,0.4-0.1c0.5,0,0.7,0.3,0.8,0.7c0,0.1,0,0.2,0,0.3c0,0.4-0.3,0.7-0.7,0.8
			c-2.3,0.5-4.8,0.9-7.4,1.1v2.4h10c0.4,0,0.7,0.4,0.7,0.8c0,0.5-0.3,0.9-0.7,0.9h-8.3c2.2,1.8,5.5,3.2,8.7,3.9
			c0.6,0.1,0.7,0.4,0.7,0.8c0,0.1,0,0.2,0,0.3c-0.1,0.5-0.4,0.7-0.8,0.7c-0.1,0-0.3,0-0.4-0.1c-3.6-0.8-7.8-3-10.1-5.4
			c0.2,0.7,0.3,1.7,0.3,2.2v1.7c0,0.5-0.4,0.7-0.9,0.7c-0.5,0-0.9-0.3-0.9-0.7v-1.7c0-0.6,0.1-1.5,0.3-2.2c-2.3,2.3-6.1,4.5-9.7,5.5
			c-0.1,0-0.2,0-0.3,0c-0.4,0-0.7-0.2-0.8-0.6c0-0.1,0-0.2,0-0.3c0-0.4,0.2-0.7,0.7-0.9c2.9-0.7,6-2.2,8.2-3.9H336.8z M353.4,386.6
			c-0.3,0.6-0.6,1.2-1,1.7c-0.6,0.8-1.3,1.6-2.1,2.3c2.3,0.7,4.6,1.5,6.7,2.3c0.5,0.2,0.7,0.6,0.7,0.9c0,0.1,0,0.3-0.1,0.4
			c-0.2,0.4-0.5,0.6-0.9,0.6c-0.2,0-0.4,0-0.6-0.1c-2.3-1.1-5-2.1-7.7-2.9c-2.8,1.7-6.5,2.6-11.2,2.9c0,0,0,0,0,0
			c-0.6,0-0.9-0.4-0.9-0.9c0,0,0,0,0-0.1c0-0.5,0.3-0.8,0.8-0.9c3.7-0.2,6.6-0.8,8.9-1.7c-1.6-0.4-3.1-0.8-4.6-1.1
			c-0.6-0.1-0.9-0.5-0.9-1c0-0.3,0.2-0.6,0.4-0.9c0.5-0.5,1-1,1.5-1.5H337c-0.4,0-0.7-0.4-0.7-0.9c0-0.5,0.3-0.8,0.7-0.8h6.9
			c0.4-0.6,0.8-1.1,1.1-1.7c0.2-0.3,0.5-0.5,0.8-0.5c0.1,0,0.3,0,0.5,0.1c0.4,0.2,0.6,0.4,0.6,0.7c0,0.1,0,0.3-0.1,0.4
			c-0.2,0.3-0.4,0.6-0.6,1h12.1c0.5,0,0.7,0.3,0.7,0.8c0,0.5-0.3,0.9-0.7,0.9H353.4z M344.8,386.6c-0.5,0.6-1,1.2-1.5,1.6
			c-0.2,0.2-0.3,0.3-0.3,0.4c0,0.1,0.1,0.2,0.4,0.2c1.5,0.3,3.2,0.7,4.9,1.1c1.3-0.8,2.3-2,3.1-3.3H344.8z"/>
		<path d="M378.2,391.2c0.3,0,0.6,0.1,0.8,0.4c0.1,0.2,0.2,0.4,0.2,0.5c0,0.3-0.2,0.6-0.6,0.8c-2,1-4.6,1.7-6.7,2
			c-0.1,0-0.2,0-0.3,0c-0.5,0-0.8-0.2-0.9-0.7c0-0.1,0-0.2,0-0.3c0-0.4,0.3-0.8,0.8-0.9c2-0.3,4.3-1,6.2-1.8
			C377.8,391.2,378,391.2,378.2,391.2z M389.7,378.8c1.6,0,2.3,0.6,2.3,2v7.7c0,1.4-0.7,2-2.3,2h-14.9c-1.6,0-2.3-0.6-2.3-2v-7.7
			c0-1.4,0.7-2,2.3-2H389.7z M388.9,371.7c1.5,0,2.3,0.6,2.3,1.9v1.7c0,1.4-0.7,1.9-2.3,1.9h-13.2c-1.5,0-2.3-0.5-2.3-1.9v-1.7
			c0-1.4,0.7-1.9,2.3-1.9H388.9z M390.1,381.1c0-0.5-0.3-0.6-0.8-0.6h-14c-0.5,0-0.8,0.1-0.8,0.6v1.2h15.6V381.1z M374.5,383.8v1.7
			h15.6v-1.7H374.5z M374.5,387.1v1.2c0,0.5,0.3,0.6,0.8,0.6h14c0.5,0,0.8-0.1,0.8-0.6v-1.2H374.5z M388.4,375.6
			c0.5,0,0.8-0.1,0.8-0.6V374c0-0.5-0.3-0.6-0.8-0.6h-12.4c-0.5,0-0.8,0.1-0.8,0.6v1.1c0,0.5,0.3,0.6,0.8,0.6H388.4z M393.3,393.2
			c0.5,0.1,0.7,0.4,0.7,0.8c0,0.1,0,0.2,0,0.3c-0.1,0.5-0.4,0.7-0.9,0.7c-0.1,0-0.2,0-0.3,0c-2.3-0.3-5.2-1.1-7.1-2.1
			c-0.3-0.2-0.5-0.5-0.5-0.7c0-0.2,0.1-0.4,0.2-0.6c0.2-0.2,0.4-0.4,0.7-0.4c0.2,0,0.4,0,0.6,0.2
			C388.3,392.1,391.1,392.8,393.3,393.2z"/>
		<path d="M417,371c0.6,0,1.2,0.2,1.5,0.6c2.6,3.4,6.2,5.9,10.1,7.7c0.4,0.2,0.6,0.6,0.6,1c0,0.2,0,0.3-0.1,0.5
			c-0.2,0.4-0.5,0.6-0.9,0.6c-0.2,0-0.4,0-0.7-0.2c-4-2-7.7-4.7-10.2-7.9c-0.1-0.1-0.2-0.2-0.3-0.2c-0.1,0-0.2,0.1-0.3,0.2
			c-2.3,3-6.1,6.2-10.3,8.1c-0.1,0.1-0.3,0.1-0.4,0.1c-0.4,0-0.7-0.2-0.9-0.6c-0.1-0.2-0.1-0.3-0.1-0.5c0-0.4,0.3-0.8,0.6-0.9
			c4-1.9,7.4-4.5,10-7.8C415.8,371.2,416.4,371,417,371z M415.7,385.9c-1,2.1-1.9,4.1-3.2,6c3.3-0.2,6.5-0.5,9.8-0.9
			c-0.8-1-1.6-1.9-2.4-2.7c-0.2-0.2-0.2-0.4-0.2-0.5c0-0.3,0.1-0.5,0.4-0.6c0.2-0.2,0.5-0.3,0.7-0.3c0.3,0,0.5,0.1,0.7,0.3
			c1.8,1.8,4,4.3,5.3,6.2c0.1,0.1,0.2,0.4,0.2,0.5c0,0.3-0.1,0.6-0.4,0.8c-0.2,0.1-0.5,0.2-0.7,0.2c-0.3,0-0.6-0.1-0.8-0.4
			c-0.4-0.6-0.9-1.3-1.4-2c-5.1,0.8-11,1.3-16.4,1.6c0,0,0,0,0,0c-0.5,0-1-0.4-1-1c0,0,0,0,0-0.1c0-0.6,0.3-1,0.8-1
			c1.1,0,2.2-0.1,3.3-0.1c1.2-1.9,2.3-4,3.1-6.1h-6.8c-0.5,0-0.7-0.4-0.7-0.9c0-0.6,0.3-1,0.7-1h20.8c0.5,0,0.7,0.4,0.7,0.9
			c0,0.6-0.3,1-0.7,1H415.7z M422.3,379c0.5,0,0.7,0.4,0.7,1c0,0.5-0.3,1-0.7,1h-10.6c-0.5,0-0.7-0.4-0.7-1c0-0.5,0.3-1,0.7-1H422.3
			z"/>
	</g>
</g>
</svg>
