<?xml version="1.0" encoding="utf-8"?>
<!-- Generator: Adobe Illustrator 21.0.2, SVG Export Plug-In . SVG Version: 6.00 Build 0)  -->
<svg version="1.1" id="レイヤー_1" xmlns="http://www.w3.org/2000/svg" xmlns:xlink="http://www.w3.org/1999/xlink" x="0px"
	 y="0px" viewBox="0 0 512 512" style="enable-background:new 0 0 512 512;" xml:space="preserve">
<style type="text/css">
	.st0{fill-rule:evenodd;clip-rule:evenodd;}
</style>
<g>
	<path class="st0" d="M250.6,455.3c-0.6-0.1-1.2-0.2-1.8-0.2c-13.8-0.5-27.3-2.4-40.7-5.7c-33-8.2-62-23.9-87-46.9
		c-25.2-23.3-43.3-51.2-54.2-83.8c-5.2-15.5-8.3-31.3-9.5-47.6c-1.1-14.2-0.6-28.4,1.3-42.5c0-0.3,0.1-0.6,0.2-1
		c8.7,0,17.4,0,26.2,0c0,19.7,0,39.3,0,59c5.4,0,10.7,0,16.2,0c0-19.7,0-39.3,0-59c6.9,0,13.6,0,20.5,0c0,19.7,0,39.3,0,59
		c5.3,0,10.5,0,15.9,0c0-19.6,0-39.3,0-59c6.9,0,13.6,0,20.5,0c0,19.7,0,39.3,0,59c0.5,0,1,0.1,1.4,0.1c9.9,0,19.8,0,29.8,0
		c1,0,1.4-0.3,1.7-1.2c1.3-4.2,2.8-8.3,4.1-12.5c0.3-0.9,0.7-1.1,1.5-1.1c7.8,0,15.6,0,23.5,0c0.9,0,1.2,0.3,1.5,1.1
		c1.3,4.2,2.7,8.5,4,12.7c0.2,0.7,0.5,1,1.3,1c9.7,0,19.4,0,29.1,0c0.3,0,0.5,0,0.9-0.1c0-18.4,0-36.7,0-55c0.1,0,0.2,0,0.2,0
		c0.5,2,0.9,3.9,1.4,5.9c3.6,16.1,7.2,32.1,10.8,48.2c0.2,0.9,0.6,1.1,1.4,1.1c4.4,0,8.7,0,13.1,0c0.9,0,1.2-0.3,1.4-1.1
		c4-17.7,8-35.4,12-53.1c0.1-0.3,0.2-0.7,0.4-1c0,18.3,0,36.7,0,55.1c0.5,0,0.9,0.1,1.3,0.1c9.3,0,18.6,0,27.9,0
		c1,0,1.4-0.3,1.6-1.2c1.3-4.2,2.8-8.4,4.1-12.5c0.2-0.8,0.5-1.1,1.4-1.1c7.9,0,15.7,0,23.6,0c0.9,0,1.2,0.3,1.5,1.1
		c1.3,4.2,2.7,8.5,4,12.7c0.2,0.6,0.4,1,1.2,1c5.2,0,10.5,0,15.7,0c0.2,0,0.4,0,0.7-0.1c-0.7-2.1-1.4-4.1-2.2-6.3
		c0.6,0.5,0.9,0.8,1.2,1.1c4.4,3.7,9.5,5.7,15.1,6.5c7.3,1.1,14.5,1.1,21.6-1.1c6.7-2,12-6,15-12.5c2.3-5.2,2.4-10.6,0.5-15.9
		c-1.7-4.9-5.3-8.2-10-9.9c-4.5-1.6-9.1-2.7-13.7-3.9c-4.4-1.2-8.9-2.2-13.4-3.3c-0.9-0.2-1.7-0.6-2.6-1c-5-2.2-4.2-8.2-1.3-10.5
		c1.9-1.5,3.9-2.4,6.4-2.4c18.1,0,36.2,0,54.3,0c0.5,0,1,0,1.7,0c0.3,2.6,0.7,5.2,0.9,7.7c0.9,9.1,1.3,18.2,1,27.3
		c-0.5,14.4-2.4,28.5-6,42.4c-8.6,33.5-24.7,62.9-48.6,87.9c-27.9,29.3-61.6,48.4-101,57.4c-12.3,2.8-24.8,4.3-37.4,4.7
		c-0.3,0-0.6,0.1-0.9,0.2C257.7,455.3,254.1,455.3,250.6,455.3z"/>
	<path class="st0" d="M264.4,56.7c0.4,0.1,0.8,0.2,1.1,0.2c27,1.3,52.7,7.8,77,19.5c18.8,9.1,35.8,20.8,50.9,35.2
		c16.1,15.4,29.3,33,39.6,52.8c7.9,15.3,13.8,31.4,17.5,48.3c0.1,0.2,0.1,0.5,0.1,0.7c0,0.1,0,0.2-0.1,0.3c-129.7,0-259.5,0-389.4,0
		c0.7-3,1.4-6.1,2.2-9c8.7-32.3,24.4-60.7,47.3-85.1c26.8-28.4,59.1-47.4,97-57c12.8-3.2,25.8-5.1,39-5.7c0.3,0,0.5-0.1,0.8-0.2
		C253.1,56.7,258.7,56.7,264.4,56.7z"/>
	<path class="st0" d="M387.6,264.2c-0.8,0-1.5,0-2.3,0c-3.9,0-7.8,0-11.7,0c-0.7,0-1.1-0.2-1.4-0.9c-4.1-11.6-8.2-23.2-12.3-34.7
		c-0.1-0.3-0.1-0.5-0.2-0.9c5.1,0,10.2,0,15.3,0c-0.3,0.9-0.6,1.7-0.8,2.6c-1.1,4.2-1.1,8.4,0.1,12.6c1.7,5.7,5.6,9.4,11.2,11.1
		c5.5,1.7,11.1,2.9,16.6,4.4c3.5,0.9,7.1,1.8,10.5,2.9c2.2,0.7,4.2,2.1,4.6,4.7c0.4,2.9-0.5,5.4-2.9,7.2c-1.9,1.3-4,1.9-6.2,2.2
		c-3.9,0.6-7.8,0.6-11.7-0.3c-4.8-1.1-7.7-4-8.5-8.9c-0.1-0.3-0.1-0.6-0.2-0.9C387.7,264.8,387.7,264.6,387.6,264.2z"/>
	<path class="st0" d="M174.4,227.6c6.8,0,13.5,0,20.4,0c-6.8,19-13.5,37.8-20.2,56.7c-0.1,0-0.1,0-0.2,0
		C174.4,265.5,174.4,246.6,174.4,227.6z"/>
	<path class="st0" d="M241.8,227.7c0,18.2,0,36.3,0,54.5c-0.1,0-0.1,0-0.2,0c-6.4-18.1-12.8-36.3-19.3-54.5
		C228.9,227.7,235.3,227.7,241.8,227.7z"/>
	<path class="st0" d="M312.5,282.2c0-18.2,0-36.3,0-54.5c6.5,0,13,0,19.7,0c-6.5,18.3-13,36.5-19.5,54.6
		C312.6,282.2,312.6,282.2,312.5,282.2z"/>
	<path class="st0" d="M277.2,268.1c-3.1-13.4-6.2-26.9-9.4-40.4c6.3,0,12.5,0,18.9,0c-3.1,13.5-6.2,27-9.3,40.4
		C277.4,268.1,277.3,268.1,277.2,268.1z"/>
	<path class="st0" d="M208.6,232.9c2.7,8.5,5.5,17,8.2,25.6c-5.7,0-11.2,0-16.9,0c2.8-8.6,5.6-17.1,8.4-25.6
		C208.4,232.9,208.5,232.9,208.6,232.9z"/>
	<path class="st0" d="M354.2,258.5c-5.7,0-11.3,0-17,0c2.8-8.6,5.6-17.1,8.4-25.6c0.1,0,0.2,0,0.3,0
		C348.7,241.4,351.4,249.9,354.2,258.5z"/>
</g>
</svg>
